<svg xmlns="http://www.w3.org/2000/svg" xmlns:xlink="http://www.w3.org/1999/xlink" width="56" height="24" viewBox="0 0 56 24">
  <defs>
    <clipPath id="clip-path">
      <path id="Path_15427" data-name="Path 15427" d="M133.243,3.9A3.464,3.464,0,0,0,129.8,7.374h5.164V19.516a3.464,3.464,0,0,0,3.443-3.474V7.374h1.721A3.464,3.464,0,0,0,143.572,3.9H133.243Z" transform="translate(-129.8 -3.9)" fill="none"/>
    </clipPath>
  </defs>
  <g id="npst_logo_ic" transform="translate(70 -1546)">
    <rect id="Rectangle_74680" data-name="Rectangle 74680" width="56" height="24" transform="translate(-70 1546)" fill="none"/>
    <g id="Group_33753" data-name="Group 33753" transform="translate(-10589.79 583.24)">
      <g id="logo_reverse_1" data-name="logo_reverse 1" transform="translate(10520.416 965)">
        <g id="Layer_1_00000025439759675839085260000018055429994554939777_" transform="translate(26.16 16.938)">
          <path id="Path_15418" data-name="Path 15418" d="M86.9,55.6h.277v1.967H86.9Zm1.629,1.967v-.891a.661.661,0,0,0-.061-.307c-.031-.031-.123-.031-.215-.031a.324.324,0,0,0-.307.123.47.47,0,0,0-.123.307v.8h-.246V56.123h.215v.215c.061-.061.123-.154.184-.184a.614.614,0,0,1,.277-.061.413.413,0,0,1,.277.061.253.253,0,0,1,.154.154c.031.031.031.061.061.123v1.137Zm1.568,0v-.891a.661.661,0,0,0-.061-.307c-.031-.031-.123-.031-.215-.031a.324.324,0,0,0-.307.123.47.47,0,0,0-.123.307v.8h-.246V56.123h.215v.215c.061-.061.123-.154.184-.184a.614.614,0,0,1,.277-.061.413.413,0,0,1,.277.061.253.253,0,0,1,.154.154c.031.031.031.061.061.123v1.137Zm.769-.707a.522.522,0,0,0,.123.4.44.44,0,0,0,.338.154.339.339,0,0,0,.307-.154.684.684,0,0,0,.123-.4.522.522,0,0,0-.123-.4.378.378,0,0,0-.307-.154.494.494,0,0,0-.338.154A.522.522,0,0,0,90.865,56.86Zm-.246,0a.752.752,0,0,1,.184-.553.725.725,0,0,1,.492-.215.674.674,0,0,1,.523.215.922.922,0,0,1,0,1.107.725.725,0,0,1-.492.215.674.674,0,0,1-.523-.215A.752.752,0,0,1,90.62,56.86Zm2.029.707-.523-1.445h.246l.4,1.137.4-1.137h.246l-.523,1.445Zm1.844-.184a.74.74,0,0,1-.246.184.9.9,0,0,1-.277.061.42.42,0,0,1-.338-.123.47.47,0,0,1-.123-.307.4.4,0,0,1,.123-.307A.831.831,0,0,1,94,56.737h.154a1.091,1.091,0,0,0,.215-.031.107.107,0,0,0,.061-.031v-.123a.235.235,0,0,0-.061-.154.523.523,0,0,0-.492,0,.279.279,0,0,0-.092.215h-.215a.44.44,0,0,1,.154-.338.6.6,0,0,1,.43-.123.814.814,0,0,1,.43.092.4.4,0,0,1,.154.338v.676c0,.061,0,.092.031.123a.107.107,0,0,0,.061.031h.061V57.6h-.123c-.061,0-.154,0-.184-.061S94.493,57.475,94.493,57.383Zm0-.523a.823.823,0,0,1-.338.061h-.123a.26.26,0,0,0-.184.061.223.223,0,0,0,0,.307.26.26,0,0,0,.184.061.459.459,0,0,0,.307-.092.38.38,0,0,0,.123-.246l.031-.154Zm.891.369c0,.061,0,.092.031.123,0,.031.061.031.092.031h.123V57.6h-.184a.476.476,0,0,1-.246-.061c-.061-.031-.061-.123-.061-.215v-.984h-.215v-.184h.215v-.4h.246v.4h.246v.184h-.246Zm.492-1.629h.246v.277h-.246Zm0,.553h.246v1.414h-.246Zm.768.707a.522.522,0,0,0,.123.4.44.44,0,0,0,.338.154.339.339,0,0,0,.307-.154.684.684,0,0,0,.123-.4.522.522,0,0,0-.123-.4.378.378,0,0,0-.307-.154.494.494,0,0,0-.338.154A.522.522,0,0,0,96.645,56.86Zm-.246,0a.751.751,0,0,1,.184-.553.725.725,0,0,1,.492-.215.674.674,0,0,1,.523.215.922.922,0,0,1,0,1.107.725.725,0,0,1-.492.215.674.674,0,0,1-.523-.215A.751.751,0,0,1,96.4,56.86Zm2.644.707v-.891a.662.662,0,0,0-.061-.307c-.031-.061-.123-.061-.215-.061a.324.324,0,0,0-.307.123.47.47,0,0,0-.123.307v.83h-.246V56.123h.246v.215c.061-.061.123-.154.184-.184a.614.614,0,0,1,.277-.061.413.413,0,0,1,.277.061.253.253,0,0,1,.154.154c.031.031.031.061.061.123v1.137Zm1.353-1.967h.246v.277h-.246Zm0,.553h.246v1.414h-.246Zm1.568,1.414v-.891a.661.661,0,0,0-.061-.307c-.031-.061-.123-.061-.215-.061a.324.324,0,0,0-.307.123.47.47,0,0,0-.123.307v.83h-.246V56.123h.246v.215c.061-.061.123-.154.184-.184a.614.614,0,0,1,.277-.061.413.413,0,0,1,.277.061.253.253,0,0,1,.154.154c.031.031.031.061.061.123v1.137Zm1.537-.83h.8a.459.459,0,0,0-.092-.307.39.39,0,0,0-.277-.123.376.376,0,0,0-.277.092A.44.44,0,0,0,103.5,56.737Zm.769.369h.246a.57.57,0,0,1-.215.369.666.666,0,0,1-.43.154.485.485,0,0,1-.461-.215.752.752,0,0,1-.184-.553,1.093,1.093,0,0,1,.154-.584.553.553,0,0,1,.461-.215.539.539,0,0,1,.461.184.71.71,0,0,1,.154.523v.092h-1.014a.383.383,0,0,0,.123.338.41.41,0,0,0,.307.123.579.579,0,0,0,.246-.061A.145.145,0,0,0,104.268,57.106Zm.891.461-.523-1.445h.246l.4,1.137.4-1.137h.246l-.523,1.445Zm1.137-.83h.8A.459.459,0,0,0,107,56.43a.39.39,0,0,0-.277-.123.376.376,0,0,0-.277.092A.578.578,0,0,0,106.3,56.737Zm.8.369h.246a.57.57,0,0,1-.215.369.666.666,0,0,1-.43.154.485.485,0,0,1-.461-.215.752.752,0,0,1-.184-.553,1.094,1.094,0,0,1,.154-.584.553.553,0,0,1,.461-.215.539.539,0,0,1,.461.184.71.71,0,0,1,.154.523v.092H106.3a.383.383,0,0,0,.123.338.41.41,0,0,0,.307.123.579.579,0,0,0,.246-.061C107.035,57.26,107.066,57.2,107.1,57.106Zm.523.461V56.123h.246v.246a.551.551,0,0,1,.154-.215.331.331,0,0,1,.246-.061h.061v.246h-.061a.519.519,0,0,0-.307.092.408.408,0,0,0-.092.307v.83Zm1.844-1.414h.277l-.615,1.66a2.742,2.742,0,0,1-.154.307.331.331,0,0,1-.246.061H108.6v-.215h.123c.061,0,.092,0,.123-.031.031,0,.061-.061.061-.092l.061-.154-.553-1.506h.277l.4,1.168Zm1.045,1.414.43-1.967h.246l-.154.707a.815.815,0,0,1,.184-.154.567.567,0,0,1,.646.092.608.608,0,0,1,.154.43.844.844,0,0,1-.061.369.961.961,0,0,1-.154.307.478.478,0,0,1-.246.184.506.506,0,0,1-.307.061.909.909,0,0,1-.307-.061c-.061-.061-.154-.123-.184-.215l-.061.215h-.184Zm.861-1.26c-.061,0-.154,0-.184.061a.253.253,0,0,0-.154.154.618.618,0,0,0-.123.246.9.9,0,0,0-.061.277.376.376,0,0,0,.092.277.349.349,0,0,0,.246.092.4.4,0,0,0,.369-.215.953.953,0,0,0,.154-.523.376.376,0,0,0-.092-.277C111.584,56.338,111.492,56.307,111.369,56.307Zm1.045,1.353-.246-1.506h.246l.154,1.2.615-1.2h.277l-.922,1.783c-.061.092-.092.154-.154.184a.579.579,0,0,1-.246.061h-.061c-.031,0-.061,0-.061-.031l.061-.215h.123a.113.113,0,0,0,.092-.031.066.066,0,0,0,.061-.061Zm1.506-.092.031-.184h-.123c-.031,0-.061,0-.061-.031a.107.107,0,0,1-.031-.061V57.2l.184-.891h.246l.031-.184h-.246l.061-.369h-.246l-.061.369h-.215l-.031.184h.215l-.184.861v.154a.33.33,0,0,0,.061.184.476.476,0,0,0,.246.061h.061C113.828,57.6,113.859,57.567,113.921,57.567Zm.523-.83h.769v-.061a.376.376,0,0,0-.092-.277.349.349,0,0,0-.246-.092.4.4,0,0,0-.307.123A1.034,1.034,0,0,0,114.443,56.737Zm.984.369a.612.612,0,0,1-.246.369.734.734,0,0,1-.43.154.608.608,0,0,1-.43-.154.692.692,0,0,1-.154-.461.866.866,0,0,1,.215-.646.7.7,0,0,1,.523-.246.666.666,0,0,1,.43.154.608.608,0,0,1,.154.43v.277h-1.076v.061a.519.519,0,0,0,.092.307.376.376,0,0,0,.277.092.579.579,0,0,0,.246-.061.551.551,0,0,0,.154-.215h.246Z" transform="translate(-86.9 -55.6)" fill="#414042" fill-rule="evenodd"/>
        </g>
        <g id="Group_30881" data-name="Group 30881" transform="translate(0 0)">
          <path id="Path_15419" data-name="Path 15419" d="M94.6,10.017A1.312,1.312,0,0,1,93.274,8.7,1.332,1.332,0,0,1,94.6,7.374h3.381A3.562,3.562,0,0,0,101.3,3.9H94.6a4.765,4.765,0,1,0,0,9.529h3.258a1.3,1.3,0,0,1,1.26,1.322A1.358,1.358,0,0,1,97.792,16.1H89.8a3.431,3.431,0,0,0,3.412,3.443h4.58a4.765,4.765,0,1,0,0-9.529H94.6Z" transform="translate(-62.749 -2.855)" fill="#3b3a39" fill-rule="evenodd"/>
          <path id="Path_15420" data-name="Path 15420" d="M60.174,8.665A4.727,4.727,0,0,0,55.747,3.9H48.8V16.073a2.652,2.652,0,0,0,.123.861,3.023,3.023,0,0,0,.154.492,4.069,4.069,0,0,0,.615.984,2.944,2.944,0,0,0,.768.615,1.246,1.246,0,0,0,.277.154,3.46,3.46,0,0,0,1.476.338h.031V13.429h3.2a4.683,4.683,0,0,0,3.013-1.076,3.061,3.061,0,0,0,.338-.307,7.427,7.427,0,0,0,.83-1.107,4.816,4.816,0,0,0,.461-1.322.677.677,0,0,0,.031-.246,2.637,2.637,0,0,0,.061-.707Zm-3.5.43h0a1.5,1.5,0,0,1-.092.215,1.23,1.23,0,0,1-.307.369,1.287,1.287,0,0,1-.83.277h-3.2V7.343H55.1l.338.031a1.3,1.3,0,0,1,1.291,1.291A1.6,1.6,0,0,1,56.669,9.1Z" transform="translate(-34.352 -2.855)" fill="#3b3a39" fill-rule="evenodd"/>
          <path id="Path_15421" data-name="Path 15421" d="M14.988,3.9a3.5,3.5,0,0,0-3.5,3.5v4.918S5.089,5.714,4.474,5.16A3.676,3.676,0,0,0,1.831,3.9H1.8V19.516h.031a3.5,3.5,0,0,0,3.5-3.5v-4.98l6.824,7.039h0a3.877,3.877,0,0,0,2.828,1.445h.031V3.9Z" transform="translate(-1.8 -2.855)" fill="#3b3a39" fill-rule="evenodd"/>
          <path id="Path_15422" data-name="Path 15422" d="M48.731,14.387a20.334,20.334,0,0,0,6.886-.646c4.242-1.476,3.2-5.041,3.2-5.041a3.685,3.685,0,0,1,1.045,3.781,5.639,5.639,0,0,1-3.351,3.135,19.792,19.792,0,0,1-7.808.676V14.387Z" transform="translate(-34.283 -6.179)" fill="#d4ebf3" fill-rule="evenodd"/>
          <path id="Path_15423" data-name="Path 15423" d="M48.731,13.387a18.72,18.72,0,0,0,6.578-.646c4.242-1.476,3.2-5.041,3.2-5.041a3.655,3.655,0,0,1,1.045,3.812A5.639,5.639,0,0,1,56.2,14.647a18.335,18.335,0,0,1-7.5.676V13.387Z" transform="translate(-34.283 -5.487)" fill="#29b6c4" fill-rule="evenodd"/>
          <path id="Path_15424" data-name="Path 15424" d="M168,.5h3.1V1.576a4.623,4.623,0,0,1-.492,2.06h-.707a4.006,4.006,0,0,0,.584-2.06V1.115H168Z" transform="translate(-116.91 -0.5)" fill="#29b6c4" fill-rule="evenodd"/>
          <path id="Path_15425" data-name="Path 15425" d="M133.243,3.9A3.464,3.464,0,0,0,129.8,7.374h5.164V19.516a3.464,3.464,0,0,0,3.443-3.474V7.374h1.721A3.464,3.464,0,0,0,143.572,3.9H133.243Z" transform="translate(-90.453 -2.855)" fill="#3b3a39" fill-rule="evenodd"/>
          <g id="Group_30880" data-name="Group 30880" transform="translate(39.347 1.045)">
            <g id="Group_30879" data-name="Group 30879" clip-path="url(#clip-path)">
              <path id="Path_15426" data-name="Path 15426" d="M157.8,7.374h1.721A3.464,3.464,0,0,0,162.964,3.9H162.1c0,1.814-2.551,3.289-4.3,3.474Z" transform="translate(-149.193 -3.9)" fill="#29b6c4" fill-rule="evenodd"/>
            </g>
          </g>
        </g>
      </g>
    </g>
  </g>
</svg>
